<svg xmlns="http://www.w3.org/2000/svg" viewBox="0 0 36 36"><circle fill="#FFCC4D" cx="18" cy="18" r="18"/><path fill="#664500" d="M10.515 25.621C10.56 25.8 11.683 30 18 30c6.318 0 7.44-4.2 7.485-4.379a.499.499 0 0 0-.237-.554.505.505 0 0 0-.6.077C24.629 25.163 22.694 27 18 27s-6.63-1.837-6.648-1.855a.502.502 0 0 0-.598-.081.5.5 0 0 0-.239.557z"/><path fill="#65471B" d="M28.994 10.011A1.005 1.005 0 0 0 28.011 9c-.067-.001-1.653-.056-3.304-1.707a.999.999 0 1 0-1.414 1.414C25.56 10.974 27.901 11 28 11a.995.995 0 0 0 .994-.989zM12.707 8.707a.999.999 0 1 0-1.414-1.414C9.652 8.934 8.075 8.998 7.99 9A1 1 0 0 0 8 11c.099 0 2.44-.026 4.707-2.293z"/><circle fill="#65471B" cx="25.116" cy="17.53" r="5"/><path fill="#5DADEC" d="M25.253 22.634c.902.003 1.799-.134 2.578-.402a4.271 4.271 0 0 0 2.286-1.843c.323-.535-.192-1.08-.92-1.08-1.112 0-2.483.962-3.944.962s-2.832-.962-3.944-.962c-.729 0-1.243.545-.92 1.08a4.275 4.275 0 0 0 2.286 1.843c.779.268 1.676.405 2.578.402z"/><ellipse transform="rotate(-45.028 26.165 18.422)" fill="#FFFFFF" cx="26.167" cy="18.423" rx="1.116" ry=".869"/><ellipse transform="rotate(-45.028 23.734 15.491)" fill="#FFFFFF" cx="23.736" cy="15.492" rx="2.232" ry="1.737"/><circle fill="#65471B" cx="10.884" cy="17.53" r="5"/><path fill="#5DADEC" d="M10.747 22.634a7.99 7.99 0 0 1-2.577-.401 4.273 4.273 0 0 1-2.287-1.843c-.323-.535.192-1.08.92-1.08 1.112 0 2.483.962 3.944.962s2.832-.962 3.944-.962c.729 0 1.243.545.92 1.08a4.275 4.275 0 0 1-2.286 1.843 7.991 7.991 0 0 1-2.578.401z"/><ellipse transform="rotate(-45.028 11.935 18.422)" fill="#FFFFFF" cx="11.936" cy="18.423" rx="1.116" ry=".869"/><ellipse transform="rotate(-45.028 9.504 15.491)" fill="#FFFFFF" cx="9.505" cy="15.492" rx="2.232" ry="1.737"/></svg>
